<?xml version="1.0" encoding="UTF-8"?>
<svg width="24px" height="24px" viewBox="0 0 24 24" version="1.1" xmlns="http://www.w3.org/2000/svg" xmlns:xlink="http://www.w3.org/1999/xlink">
    <title>第一名 2</title>
    <defs>
        <path d="M12,3 L14.636,5.636 L18.363961,5.63603897 L18.363,9.363 L21,12 L18.363,14.637 L18.363961,18.363961 L14.637,18.363 L12,21 L9.363,18.363 L5.63603897,18.363961 L5.636,14.636 L3,12 L5.636,9.364 L5.63603897,5.63603897 L9.364,5.636 L12,3 Z" id="path-1"></path>
        <filter x="-33.3%" y="-33.3%" width="166.7%" height="166.7%" filterUnits="objectBoundingBox" id="filter-2">
            <feOffset dx="0" dy="0" in="SourceAlpha" result="shadowOffsetOuter1"></feOffset>
            <feGaussianBlur stdDeviation="2" in="shadowOffsetOuter1" result="shadowBlurOuter1"></feGaussianBlur>
            <feColorMatrix values="0 0 0 0 0.765677189   0 0 0 0 0.765677189   0 0 0 0 0.765677189  0 0 0 1 0" type="matrix" in="shadowBlurOuter1"></feColorMatrix>
        </filter>
    </defs>
    <g id="页面-1" stroke="none" stroke-width="1" fill="none" fill-rule="evenodd">
        <g id="024-8客户部审核列表-详情-撤出标签3" transform="translate(-790.000000, -135.000000)">
            <g id="搜索条件" transform="translate(248.000000, 107.000000)">
                <g id="编组-68备份" transform="translate(542.000000, 28.000000)">
                    <g id="编组-68">
                        <g id="编组-67">
                            <g id="第一名-2">
                                <g id="编组-14">
                                    <path d="M14,1.15470054 L20.3923048,4.84529946 C21.6299092,5.55983064 22.3923048,6.88033872 22.3923048,8.30940108 L22.3923048,15.6905989 C22.3923048,17.1196613 21.6299092,18.4401694 20.3923048,19.1547005 L14,22.8452995 C12.7623957,23.5598306 11.2376043,23.5598306 10,22.8452995 L3.60769515,19.1547005 C2.37009085,18.4401694 1.60769515,17.1196613 1.60769515,15.6905989 L1.60769515,8.30940108 C1.60769515,6.88033872 2.37009085,5.55983064 3.60769515,4.84529946 L10,1.15470054 C11.2376043,0.440169359 12.7623957,0.440169359 14,1.15470054 Z" id="多边形" stroke="#222222" fill="#FFFFFF"></path>
                                    <g id="形状结合">
                                        <use fill="black" fill-opacity="1" filter="url(#filter-2)" xlink:href="#path-1"></use>
                                        <use fill="#FFFFFF" fill-rule="evenodd" xlink:href="#path-1"></use>
                                    </g>
                                    <path d="M13.1413456,5.82104555 C12.9365021,6.3505752 12.7934601,6.71660038 12.6770646,7.00976562 L12.6770646,7.00976562 L17.3515625,7.00976562 L17.3515625,17.9941406 L14.546875,17.9941406 L14.546875,17.2675781 L9.3828125,17.2675781 L9.3828125,18.0175781 L6.578125,18.0175781 L6.578125,7.00976562 L9.65887688,7.00976563 C9.80853472,6.44355605 9.8895727,6.10839505 9.93983003,5.86269251 L9.93983003,5.86269251 Z M14.546875,13.4472656 L9.3828125,13.4472656 L9.3828125,14.6035156 L14.546875,14.6035156 L14.546875,13.4472656 Z M14.546875,9.67382812 L9.3828125,9.67382812 L9.3828125,10.8300781 L14.546875,10.8300781 L14.546875,9.67382812 Z" id="白" stroke="#000000" fill="#FFFFFF" fill-rule="nonzero"></path>
                                </g>
                            </g>
                        </g>
                    </g>
                </g>
            </g>
        </g>
    </g>
</svg>